<svg xmlns="http://www.w3.org/2000/svg" width="200" height="134"><path fill="#EEEEF0" d="M179.297 20.34C167.074 8.12 150.583 1.365 132.823 1.385c-17.991.012-34.86 6.944-47.528 19.505L50.449 54.483 36.558 67.925l-4.803 4.635c-1.666 1.673-3.776 2.55-6.074 2.536l-.047.014a7.978 7.978 0 0 1-5.652-2.284c-1.499-1.53-2.322-3.535-2.339-5.763 0-2.116.85-4.123 2.366-5.637 2.097-2.099 6.326-2.469 9.303-1.293l.024.008c3.402 1.766 8.443 1.591 11.121-1.318 2.78-3.012 3.039-7.083.795-10.355l-.217-.229c-4.069-3.188-9.446-5.095-15.285-5.107-6.727-.019-13.042 2.449-17.311 6.718C3.863 54.425 1.348 60.521 1.3 67.089a24.589 24.589 0 0 0 7.125 17.269c4.388 4.392 10.673 6.89 17.236 6.894 6.655-.024 13.083-2.573 17.549-7.029l53.473-51.634c9.69-9.588 22.491-14.86 36.151-14.879 13.402.022 25.836 5.061 34.918 14.15 9.367 9.531 14.49 22.005 14.517 35.217.007 13.315-5.136 25.708-14.493 35.062-8.936 8.912-21.773 14.059-35.186 14.049-13.433.023-26.24-5.088-35.187-14.035l-28.47-28.462s-.806-.633-2.6-1.054c-.038-.007-.075-.018-.109-.021l.01-.023c-2.583-.463-5.707.203-7.719 2.212-2.722 2.727-2.933 7.142-1.115 10.36l-.044.062 28.66 28.583c11.859 11.895 28.823 18.697 46.548 18.707 17.757-.018 34.769-6.842 46.732-18.848 12.484-12.372 19.3-28.932 19.327-46.591-.026-17.518-6.852-34.111-19.326-46.738zM68.185 74.399l.109-.112h.006l-.115.112z"/></svg>